<svg data-v-423bf9ae="" xmlns="http://www.w3.org/2000/svg" viewBox="0 0 134.2274084145957 60" class="font"><!----><!----><defs data-v-423bf9ae=""><linearGradient data-v-423bf9ae="" gradientTransform="rotate(25)" id="71a03d45-154a-4231-8d22-089fa398e925" x1="0%" y1="0%" x2="100%" y2="0%"><stop data-v-423bf9ae="" offset="0%" style="stop-color: rgb(78, 26, 112); stop-opacity: 1;"></stop><stop data-v-423bf9ae="" offset="100%" style="stop-color: rgb(43, 76, 242); stop-opacity: 1;"></stop></linearGradient></defs><g data-v-423bf9ae="" id="070edf32-068e-48eb-98b7-ba67ae286195" fill="url(#71a03d45-154a-4231-8d22-089fa398e925)" transform="matrix(5.830904006958008,0,0,5.830904006958008,-0.8163341283798218,-2.4489810466766357)"><path d="M4.06 0.42L0.14 10.50L1.50 10.50L2.42 8.05L6.96 8.05L7.87 10.50L9.31 10.50L5.42 0.42ZM4.73 1.95L6.52 6.86L2.87 6.86ZM9.94 8.40C10.05 9.87 11.14 10.71 12.92 10.71C14.38 10.71 15.86 10.11 15.86 8.50C15.86 7.14 14.98 6.65 14.07 6.40L12.11 5.87C11.68 5.75 11.21 5.52 11.21 5.03C11.21 4.44 11.75 4.06 12.80 4.06C13.73 4.06 14.27 4.48 14.38 5.28L15.58 5.11C15.47 3.86 14.56 3.01 12.82 3.01C11.33 3.01 10.01 3.64 10.01 5.17C10.01 6.37 10.86 6.82 11.83 7.08L13.61 7.56C14.35 7.76 14.60 8.05 14.60 8.61C14.60 9.42 13.68 9.66 12.96 9.66C11.76 9.66 11.27 8.99 11.16 8.22L9.94 8.40ZM17.26 10.50L18.52 10.50L18.52 7.35L19.11 7.35C19.67 7.35 20.12 7.60 20.50 8.26L21.69 10.50L23.16 10.50L21.81 8.08C21.38 7.36 20.83 6.92 20.30 6.79L20.30 6.73C20.85 6.59 21.24 6.13 21.57 5.29C21.78 4.76 21.83 4.38 22.48 4.38L22.83 4.38L22.83 3.22L22.58 3.22C21.77 3.22 21.36 3.26 20.97 3.95C20.85 4.17 20.44 5.24 20.20 5.63C19.85 6.20 19.39 6.30 18.97 6.30L18.52 6.30L18.52 0.42L17.26 0.42Z"></path></g><!----><!----></svg>